<svg width="50" height="50" viewBox="0 0 50 50" fill="none" xmlns="http://www.w3.org/2000/svg">
<g clip-path="url(#clip0_16_66)">
<path d="M24.3655 0.24414C24.1409 0.458984 24.1213 0.55664 24.1213 1.31836C24.1213 2.08008 24.1409 2.17773 24.3655 2.39258C24.5413 2.57812 24.7073 2.63672 25.0002 2.63672C25.2932 2.63672 25.4592 2.57812 25.635 2.39258C25.8596 2.17773 25.8792 2.08008 25.8792 1.31836C25.8792 0.55664 25.8596 0.458984 25.635 0.24414C25.303 -0.0976565 24.6975 -0.0976565 24.3655 0.24414Z" fill="#9A51D3"/>
<path d="M16.3576 0.751953C15.9865 0.839844 15.7228 1.18164 15.7228 1.58203C15.7228 2.06055 16.7287 4.57031 17.0119 4.80469C17.1291 4.91211 17.3732 4.98047 17.6271 4.98047C17.9787 4.98047 18.0959 4.93164 18.3009 4.67773C18.4377 4.51172 18.5548 4.26758 18.5548 4.14062C18.5548 3.80859 17.4904 1.25977 17.2462 1.01562C17.0216 0.791016 16.6701 0.683594 16.3576 0.751953Z" fill="#9A51D3"/>
<path d="M33.1444 0.751952C33.0273 0.771483 32.8515 0.888671 32.744 1.00586C32.5097 1.26953 31.4452 3.84766 31.4452 4.15039C31.4452 4.27734 31.5624 4.51172 31.6991 4.67773C31.9042 4.93164 32.0214 4.98047 32.373 4.98047C32.6269 4.98047 32.871 4.91211 32.9882 4.80469C33.2812 4.56055 34.2773 2.08008 34.2773 1.60156C34.2773 1.01562 33.7792 0.634765 33.1444 0.751952Z" fill="#9A51D3"/>
<path d="M9.6095 6.05469C9.28723 6.18164 9.08215 6.54297 9.08215 6.97266C9.08215 7.33398 9.14075 7.43164 9.75598 8.02734C10.3615 8.61328 10.4786 8.69141 10.8107 8.69141C11.2794 8.69141 11.5724 8.48633 11.7189 8.06641C11.8556 7.63672 11.7384 7.34375 11.1622 6.72852C10.4884 6.01562 10.1173 5.84961 9.6095 6.05469Z" fill="#9A51D3"/>
<path d="M39.5995 6.06445C39.2772 6.25 38.4667 7.06055 38.3104 7.36328C37.9784 7.99805 38.4374 8.69141 39.1893 8.69141C39.5506 8.69141 39.6483 8.63281 40.2538 8.02734C40.8592 7.41211 40.9178 7.32422 40.9178 6.95312C40.9178 6.67969 40.8495 6.47461 40.703 6.29883C40.4491 6.01562 39.8924 5.89844 39.5995 6.06445Z" fill="#9A51D3"/>
<path d="M21.1428 8.80859C20.3908 8.94531 19.5314 9.41406 18.965 9.98047C18.4963 10.4492 18.3107 10.7617 17.6467 12.1777C17.5197 12.4512 17.0607 12.6172 16.7482 12.5C16.26 12.3145 16.1037 11.7578 16.3674 11.0937C16.4357 10.9277 16.3967 10.918 15.8107 10.957C15.049 11.0059 14.5998 11.2109 14.0725 11.748C13.6525 12.168 13.2814 12.9395 13.4377 13.0762C13.4865 13.1152 13.7502 13.2031 14.0139 13.2617C14.9416 13.4961 16.0158 14.4336 16.0158 15.0195C16.0158 15.3223 15.508 15.8203 15.1955 15.8203C15.0393 15.8203 14.7463 15.6445 14.3947 15.332C13.799 14.8145 13.4475 14.6875 12.7346 14.7754C12.1486 14.834 11.6701 15.1855 11.3771 15.7617C10.9377 16.6406 11.1428 17.5586 11.9143 18.1738C12.4318 18.5937 12.5393 18.8574 12.3635 19.2773C12.0998 19.9023 11.3771 19.9512 10.8303 19.375C10.7131 19.248 10.5764 19.1406 10.5373 19.1406C10.3713 19.1406 10.1369 20.127 10.0881 20.9961C10.0197 22.1387 10.1564 22.8223 10.6154 23.7598C11.2697 25.0586 12.5197 26.084 13.9943 26.5137C14.551 26.6699 16.2893 26.7383 16.5041 26.6113C16.6115 26.543 16.6408 25.9863 16.5432 25.7422C16.5139 25.6543 16.4064 25.5859 16.3186 25.5859C16.0354 25.5859 15.0979 25.0977 14.7561 24.7754C14.2775 24.3164 13.8674 23.4082 13.8674 22.7832C13.8674 22.3437 13.9064 22.2559 14.1701 22.0312C14.5119 21.7383 14.6486 21.7187 15.0295 21.9238C15.3225 22.0703 15.5275 22.4902 15.5275 22.9297C15.5275 23.2812 16.2014 23.9258 16.5627 23.9258C16.8166 23.916 16.8752 23.8477 17.1389 23.2715C17.3635 22.7637 17.4904 22.5977 17.7443 22.5C18.1154 22.3437 18.4572 22.4414 18.6916 22.7734C18.9064 23.0762 18.8869 23.3301 18.6037 23.9453C18.2326 24.7461 18.1252 25.4883 18.2619 26.2598C18.4768 27.5098 19.2678 28.5547 20.3908 29.082C20.8889 29.3164 21.0646 29.3457 22.0217 29.3457C22.9982 29.3457 23.1447 29.3164 23.633 29.082C23.926 28.9355 24.424 28.5937 24.7365 28.3203C25.049 28.0566 25.3908 27.832 25.4787 27.832C25.5764 27.832 25.9084 27.9297 26.2307 28.0371C27.0314 28.3301 28.799 28.3984 29.717 28.1836C30.6154 27.9687 30.7326 27.9785 31.0646 28.3105C31.6799 28.9355 31.26 29.5801 30.0979 29.7852C29.7072 29.8535 29.3947 29.9512 29.3947 30C29.3947 30.0391 29.551 30.2441 29.7365 30.4492C30.1369 30.8984 30.8303 31.2793 32.1779 31.7871C33.3303 32.2266 33.9357 32.5977 34.6877 33.3398C35.176 33.8281 35.2834 33.8867 35.6447 33.8867C36.1623 33.8867 36.4943 33.6621 36.6311 33.2129C36.7287 32.9004 36.6994 32.7637 36.4357 32.0801C36.0158 30.9863 36.0744 31.0352 35.4201 31.2598C35.1076 31.3672 34.6584 31.4746 34.424 31.5137C34.0334 31.5625 33.965 31.543 33.6818 31.2598C33.4279 30.9961 33.3889 30.8984 33.4377 30.6348C33.5256 30.1855 33.7697 29.9902 34.4436 29.834C35.6252 29.5605 36.8947 28.7891 37.5393 27.9687L37.8225 27.6074L37.4416 27.6758C35.7326 27.9687 34.424 27.7246 33.1838 26.8848L32.676 26.5527L32.0607 26.6602C31.5822 26.7578 31.3381 26.7578 30.9768 26.6602C29.3947 26.2598 28.301 24.8242 29.0529 24.1211C29.4729 23.7305 29.8439 23.8086 30.3615 24.4043C30.8791 24.9805 31.2697 25.1367 31.8752 25C32.6662 24.8242 33.0666 24.0039 32.7736 23.1738C32.5783 22.6172 32.7053 22.2363 33.1643 22.0215C33.633 21.7969 33.965 21.9727 34.2775 22.6074C34.6096 23.2812 34.5998 24.209 34.2482 24.9219C33.9455 25.5273 33.9846 25.5957 34.7072 25.8691C35.4299 26.1426 36.2014 26.2109 36.8752 26.0742C38.8479 25.6641 40.049 24.0723 39.9123 22.041C39.883 21.6113 39.8244 21.2305 39.7756 21.1816C39.717 21.123 39.5119 21.1816 39.2482 21.3379C38.7111 21.6406 38.5646 21.6406 38.1936 21.3281C37.8127 21.0059 37.7736 20.498 38.1154 20.2148C38.9943 19.4629 39.2482 19.1602 39.3557 18.75C39.8049 17.0801 38.0959 15.8203 36.5236 16.6406C35.8986 16.9629 35.6936 16.9629 35.342 16.6113C34.8244 16.084 35.049 15.5371 35.9963 15.0781C36.5139 14.8242 36.5334 14.8047 36.465 14.5117C36.2795 13.6426 35.4299 12.3242 34.6584 11.6992C33.7893 10.9961 32.7932 10.5664 31.6701 10.4102C31.2502 10.3516 31.2502 10.3516 31.2502 10.6445C31.2502 11.0449 30.8693 11.4258 30.4787 11.4258C30.0002 11.4258 29.6975 11.0742 29.59 10.4102C29.424 9.38476 28.7209 8.75976 27.7443 8.75976C27.1389 8.75976 26.7385 8.92578 26.3576 9.3457C26.0158 9.71679 25.9182 9.92187 25.8303 10.4883C25.7033 11.3672 24.9904 11.7187 24.4436 11.1719C24.2189 10.9473 24.1994 10.8691 24.2385 10.3223C24.2678 9.99023 24.3166 9.64844 24.3557 9.56054C24.4826 9.26758 22.8029 8.67187 21.9338 8.70117C21.7678 8.71094 21.4162 8.75976 21.1428 8.80859ZM22.549 14.209C22.9104 14.3848 23.0861 14.8145 22.9592 15.166C22.8322 15.498 22.5197 15.6836 21.9436 15.7617C20.7912 15.9082 20.0588 16.6602 19.8732 17.9004C19.7756 18.5449 19.5119 18.8477 19.0529 18.8477C18.4963 18.8477 18.2326 18.5156 18.2521 17.8418C18.2912 16.1621 19.59 14.6191 21.3381 14.1992C22.0021 14.0332 22.2268 14.0332 22.549 14.209ZM30.801 17.8223C31.1232 18.125 31.133 18.5254 30.8303 19.375C30.2639 20.918 28.9553 22.1289 27.3146 22.6074C26.7971 22.7539 26.7385 22.8027 26.5041 23.2617C25.9572 24.3457 24.6975 25.2539 23.3986 25.498C22.7053 25.625 22.3244 25.5469 22.0705 25.2246C21.8068 24.8828 21.8264 24.5898 22.1291 24.2285C22.3146 24.0039 22.4611 23.9258 22.6955 23.9258C23.2717 23.9258 23.9846 23.6426 24.4533 23.2324C24.6975 23.0176 24.9025 22.8027 24.9025 22.7539C24.9025 22.7148 24.7561 22.6465 24.59 22.6172C23.9748 22.5 23.0373 21.9727 22.4514 21.4258C21.9826 20.9766 21.8752 20.8105 21.8752 20.5664C21.885 20.2246 22.0217 20.0098 22.3342 19.8437C22.6955 19.6484 22.9201 19.707 23.3889 20.1172C24.1994 20.8203 24.7268 21.0254 25.7814 21.0742C26.5529 21.1035 26.7971 21.0742 27.2658 20.8984C28.2814 20.5176 29.0334 19.6484 29.4436 18.3887C29.6975 17.5781 30.2736 17.334 30.801 17.8223Z" fill="#9A51D3"/>
<path d="M4.29665 12.7246C3.7986 12.9785 3.66188 13.6914 4.03297 14.1016C4.31618 14.4336 6.72829 15.4297 7.22633 15.4297C7.5193 15.4297 7.65602 15.3711 7.85133 15.127C8.13454 14.7949 8.1736 14.4727 7.95876 14.0723C7.85133 13.8477 7.55836 13.6914 6.35719 13.1934C5.55641 12.8711 4.81422 12.5977 4.71657 12.5977C4.61891 12.5977 4.43336 12.6562 4.29665 12.7246Z" fill="#9A51D3"/>
<path d="M43.6525 13.1836C42.8713 13.5059 42.1779 13.8477 42.1096 13.9453C41.6408 14.5801 42.0217 15.4297 42.7834 15.4297C43.2912 15.4297 45.6838 14.4336 45.9865 14.0918C46.1721 13.8867 46.2014 13.7598 46.1623 13.4473C46.0939 12.9688 45.8498 12.7051 45.4006 12.6465C45.1467 12.6074 44.7463 12.7344 43.6525 13.1836Z" fill="#9A51D3"/>
<path d="M8.5448 25.2051C8.42762 25.2637 8.28113 25.4004 8.21277 25.5176C8.09558 25.7031 4.96082 44.2383 5.02918 44.3164C5.04871 44.3359 5.60535 44.1992 6.26941 44.0137C8.61316 43.3398 10.4979 43.0273 12.9589 42.8711C16.2987 42.6758 20.2245 43.1543 23.3397 44.1309C23.6913 44.248 24.0331 44.3359 24.1014 44.3359C24.1893 44.3359 24.2186 43.1348 24.2186 38.6719V32.998L24.4628 32.7637C24.7753 32.4414 25.2245 32.4414 25.537 32.7637L25.7811 32.998V38.6719C25.7811 42.0508 25.8202 44.3359 25.869 44.3359C25.9179 44.3359 26.4843 44.1895 27.119 44.0039C32.5194 42.4512 38.5057 42.4512 43.7011 44.0039C45.0096 44.3945 45.0487 44.3945 44.9901 44.1797C44.9608 44.0723 44.2479 39.7949 43.3983 34.668C42.5585 29.541 41.8456 25.3125 41.8065 25.2734C41.7772 25.2441 41.5429 25.1855 41.2987 25.1465C40.869 25.0781 40.8495 25.0879 40.6054 25.4687C40.4589 25.6836 40.2929 26.0449 40.2343 26.2793C39.9022 27.5 39.0526 28.8477 38.0468 29.7461L37.4315 30.3027L37.7538 31.0156C38.2518 32.0801 38.4081 32.7832 38.2811 33.3496C37.9589 34.7656 36.8651 35.6348 35.5175 35.5273C34.746 35.459 34.4139 35.293 33.5936 34.5215C32.8514 33.8281 32.6757 33.7207 31.4257 33.2422C29.4139 32.4707 28.3886 31.709 27.8807 30.5859C27.6268 30.0391 27.5682 29.9805 27.246 29.9316C27.0604 29.9023 26.6405 29.8145 26.328 29.7461L25.7518 29.6191L25.3124 29.9512C24.3065 30.7129 23.2811 31.0547 21.9725 31.0547C21.035 31.0547 20.371 30.8887 19.4823 30.4492C18.8182 30.1074 17.7636 29.1504 17.4218 28.5547L17.1776 28.1445L16.7675 28.2422C16.0643 28.3984 14.58 28.3496 13.7401 28.1348C12.2557 27.7441 10.6151 26.6406 9.8241 25.498C9.57019 25.1367 9.50183 25.0977 9.14051 25.1074C8.92566 25.1074 8.65222 25.1562 8.5448 25.2051Z" fill="#9A51D3"/>
<path d="M4.922 27.5586C4.80481 27.6074 4.65833 27.7539 4.59973 27.8711C4.47278 28.1152 0.781372 47.0117 0.781372 47.4316C0.781372 47.832 1.02551 48.125 1.44543 48.2422C1.67981 48.3008 4.91223 48.3398 10.8107 48.3398H19.8146L19.8634 48.0176C19.9611 47.4121 20.1271 45.0977 20.0782 45.0488C19.922 44.8828 17.3732 44.6191 15.5275 44.5605C12.0607 44.4629 9.11145 44.8437 5.96692 45.8105C5.62512 45.9082 5.19543 45.9961 5.01965 45.9961C4.59973 45.9961 3.99426 45.6934 3.72083 45.3516C3.24231 44.7363 3.21301 44.9902 4.68762 36.1133C5.43958 31.582 6.07434 27.7832 6.10364 27.6562C6.15247 27.4512 6.12317 27.4414 5.64465 27.4512C5.36145 27.4512 5.02942 27.5 4.922 27.5586Z" fill="#9A51D3"/>
<path d="M43.8965 27.6562C43.9258 27.7832 44.5605 31.582 45.3125 36.1133C46.7871 44.9902 46.7578 44.7363 46.2793 45.3516C46.0156 45.6934 45.4004 45.9961 45 45.9961C44.8242 45.9961 44.2188 45.8594 43.6523 45.6934C40.9766 44.9219 39.0332 44.6289 36.084 44.5605C34.3848 44.5215 33.4766 44.5508 32.3438 44.668C30.6738 44.8438 29.8828 44.9902 29.8828 45.127C29.8828 45.3516 30.0879 47.7441 30.1367 48.0176L30.1855 48.3398H39.1895C45.0879 48.3398 48.3203 48.3008 48.5547 48.2422C48.9746 48.125 49.2188 47.832 49.2188 47.4316C49.2188 47.2754 48.3789 42.832 47.3535 37.5586C45.5176 28.0859 45.4883 27.9785 45.2051 27.7051C44.9609 27.4805 44.834 27.4414 44.3848 27.4414C43.877 27.4414 43.8477 27.4512 43.8965 27.6562Z" fill="#9A51D3"/>
<path d="M21.7384 45.6738C21.7091 45.8301 21.631 46.6699 21.5724 47.5488L21.4552 49.1504L21.67 49.3359C21.797 49.4336 22.2071 49.6094 22.5977 49.7363C23.2032 49.9219 23.506 49.9512 25.0001 49.9512C26.4942 49.9512 26.797 49.9219 27.4024 49.7363C27.7931 49.6094 28.2032 49.4336 28.3302 49.3262L28.5548 49.1504L28.4083 47.334C28.3204 46.3281 28.2325 45.4785 28.1935 45.4492C28.1544 45.4102 27.5196 45.5859 26.7872 45.8496C25.9474 46.1328 25.2735 46.3184 25.0001 46.3184C24.7267 46.3184 24.0821 46.1523 23.2911 45.8691C22.5977 45.6152 21.9727 45.4102 21.9044 45.4102C21.8458 45.4102 21.7677 45.5273 21.7384 45.6738Z" fill="#9A51D3"/>
</g>
<defs>
<clipPath id="clip0_16_66">
<rect width="50" height="50" fill="white"/>
</clipPath>
</defs>
</svg>
