<svg width="67" height="30" viewBox="0 0 67 30" fill="none" xmlns="http://www.w3.org/2000/svg">
<rect x="0.5" y="0.5" width="66" height="29" rx="4.5" fill="white"/>
<rect x="0.5" y="0.5" width="66" height="29" rx="4.5" stroke="#999999"/>
<g clip-path="url(#clip0_364_914)">
<path fill-rule="evenodd" clip-rule="evenodd" d="M21 20.3333C23.9456 20.3333 26.3334 17.9454 26.3334 14.9999C26.3334 12.0544 23.9456 9.66659 21 9.66659C18.0545 9.66659 15.6667 12.0544 15.6667 14.9999C15.6667 17.9454 18.0545 20.3333 21 20.3333ZM21 21.6666C24.6819 21.6666 27.6667 18.6818 27.6667 14.9999C27.6667 11.318 24.6819 8.33325 21 8.33325C17.3181 8.33325 14.3334 11.318 14.3334 14.9999C14.3334 18.6818 17.3181 21.6666 21 21.6666Z" fill="black"/>
<path fill-rule="evenodd" clip-rule="evenodd" d="M22.1644 19.1177C22.6569 18.1327 23 16.6788 23 14.9999C23 13.3211 22.6569 11.8671 22.1644 10.8822C21.6321 9.81747 21.1433 9.66659 21 9.66659C20.8566 9.66659 20.3679 9.81747 19.8355 10.8822C19.343 11.8671 19 13.3211 19 14.9999C19 16.6788 19.343 18.1327 19.8355 19.1177C20.3679 20.1824 20.8566 20.3333 21 20.3333C21.1433 20.3333 21.6321 20.1824 22.1644 19.1177ZM21 21.6666C22.8409 21.6666 24.3333 18.6818 24.3333 14.9999C24.3333 11.318 22.8409 8.33325 21 8.33325C19.159 8.33325 17.6666 11.318 17.6666 14.9999C17.6666 18.6818 19.159 21.6666 21 21.6666Z" fill="black"/>
<path fill-rule="evenodd" clip-rule="evenodd" d="M27.6338 15.6666C27.6556 15.4473 27.6667 15.2249 27.6667 14.9999C27.6667 14.7749 27.6556 14.5525 27.6338 14.3333H14.3663C14.3445 14.5525 14.3334 14.7749 14.3334 14.9999C14.3334 15.2249 14.3445 15.4473 14.3663 15.6666H27.6338Z" fill="black"/>
<path d="M37.03 15.772V14.666H39.662C40.2313 14.666 40.67 14.5213 40.978 14.232C41.286 13.9427 41.44 13.5507 41.44 13.056C41.44 12.5893 41.286 12.202 40.978 11.894C40.6793 11.586 40.2453 11.432 39.676 11.432H37.03V10.284H39.718C40.334 10.284 40.8707 10.4053 41.328 10.648C41.7853 10.8813 42.1353 11.2033 42.378 11.614C42.63 12.0247 42.756 12.496 42.756 13.028C42.756 13.5787 42.63 14.0593 42.378 14.47C42.1353 14.8807 41.7853 15.2027 41.328 15.436C40.8707 15.66 40.334 15.772 39.718 15.772H37.03ZM36.148 20V10.284H37.464V20H36.148ZM41.748 20L38.22 15.646L39.466 15.212L43.414 20H41.748ZM48.3876 20.14C47.6689 20.14 47.0249 19.9813 46.4556 19.664C45.8956 19.3373 45.4523 18.894 45.1256 18.334C44.7989 17.7647 44.6356 17.1207 44.6356 16.402V10.284H45.9516V16.374C45.9516 16.8873 46.0589 17.3307 46.2736 17.704C46.4883 18.0773 46.7776 18.3667 47.1416 18.572C47.5149 18.7773 47.9303 18.88 48.3876 18.88C48.8636 18.88 49.2789 18.7773 49.6336 18.572C49.9976 18.3667 50.2823 18.0773 50.4876 17.704C50.7023 17.3307 50.8096 16.892 50.8096 16.388V10.284H52.1396V16.416C52.1396 17.1347 51.9763 17.774 51.6496 18.334C51.3229 18.894 50.8796 19.3373 50.3196 19.664C49.7596 19.9813 49.1156 20.14 48.3876 20.14Z" fill="black"/>
</g>
<defs>
<clipPath id="clip0_364_914">
<rect width="41" height="16" fill="white" transform="translate(13 7)"/>
</clipPath>
</defs>
</svg>
