<svg width="20" height="20" viewBox="0 0 20 20" fill="none" xmlns="http://www.w3.org/2000/svg">
<path d="M10.0008 0C7.91774 0.00245748 5.92067 0.831051 4.4477 2.30402C2.97474 3.77699 2.14614 5.77405 2.14369 7.85714C2.14119 9.55945 2.69724 11.2156 3.72654 12.5714C3.72654 12.5714 3.94083 12.8536 3.97583 12.8943L10.0008 20L16.0287 12.8907C16.0601 12.8529 16.2751 12.5714 16.2751 12.5714L16.2758 12.5693C17.3046 11.214 17.8604 9.55866 17.858 7.85714C17.8555 5.77405 17.0269 3.77699 15.554 2.30402C14.081 0.831051 12.0839 0.00245748 10.0008 0ZM10.0008 10.7143C9.43574 10.7143 8.88334 10.5467 8.41348 10.2328C7.94363 9.91882 7.57742 9.4726 7.36117 8.95052C7.14492 8.42845 7.08834 7.85397 7.19858 7.29974C7.30883 6.74551 7.58094 6.23642 7.98052 5.83684C8.3801 5.43726 8.8892 5.16514 9.44343 5.0549C9.99766 4.94466 10.5721 5.00124 11.0942 5.21749C11.6163 5.43374 12.0625 5.79994 12.3765 6.2698C12.6904 6.73965 12.858 7.29205 12.858 7.85714C12.857 8.61461 12.5557 9.34079 12.0201 9.8764C11.4845 10.412 10.7583 10.7133 10.0008 10.7143Z" fill="#9A51D3"/>
</svg>
