<svg width="111" height="48" viewBox="0 0 111 48" fill="none" xmlns="http://www.w3.org/2000/svg">
<rect x="47.5" y="47.5" width="47" height="47" rx="23.5" transform="rotate(180 47.5 47.5)" stroke="#0E0E0E"/>
<path d="M19.6515 25.6873C18.4165 24.9014 18.4165 23.0986 19.6515 22.3127L24.9262 18.956C26.2577 18.1087 28 19.0652 28 20.6433L28 27.3567C28 28.9348 26.2577 29.8913 24.9262 29.044L19.6515 25.6873Z" fill="#0E0E0E"/>
<rect x="63.5" y="0.5" width="47" height="47" rx="23.5" stroke="#0E0E0E"/>
<path d="M91.3485 22.3127C92.5835 23.0986 92.5835 24.9014 91.3485 25.6873L86.0738 29.044C84.7423 29.8913 83 28.9348 83 27.3567L83 20.6433C83 19.0652 84.7423 18.1087 86.0738 18.956L91.3485 22.3127Z" fill="#0E0E0E"/>
</svg>
