<svg width="24" height="24" viewBox="0 0 24 24" fill="none" xmlns="http://www.w3.org/2000/svg">
<path fill-rule="evenodd" clip-rule="evenodd" d="M13.5784 4.03205C12.496 4.19147 11.7357 4.53689 11.1119 5.15257C10.5868 5.67095 10.2591 6.27914 10.0737 7.0795C10.0036 7.38181 9.99468 7.56452 9.9802 8.98855L9.96419 10.5633H7V13.7648L9.95088 13.7832L9.96998 22H13.5032V13.7656H14.9693C15.7756 13.7656 16.4359 13.7616 16.4367 13.7568C16.5351 13.1159 16.8698 10.608 16.8594 10.5897C16.8511 10.5752 16.0915 10.5633 15.1713 10.5633H13.4983L13.5109 9.25247C13.5233 7.97043 13.5256 7.93707 13.6125 7.73336C13.7885 7.32069 14.159 7.07686 14.7122 7.00965C14.8639 6.99121 15.4408 6.97562 15.994 6.97502L17 6.97393L16.9804 4.10595L16.4917 4.06439C15.6904 3.99623 13.9526 3.97695 13.5784 4.03205Z" fill="#9A51D3"/>
</svg>
