<svg width="24" height="24" viewBox="0 0 24 24" fill="none" xmlns="http://www.w3.org/2000/svg">
<path fill-rule="evenodd" clip-rule="evenodd" d="M7.28427 4.03588C6.69468 4.10349 6.00431 4.33191 5.47647 4.63402C4.11211 5.41486 3.21185 6.78048 3.03894 8.3314C2.98702 8.79726 2.98702 17.1973 3.03894 17.6632C3.29097 19.9238 5.07554 21.7089 7.33552 21.9611C7.80124 22.013 16.1988 22.013 16.6645 21.9611C18.9245 21.7089 20.709 19.9238 20.9611 17.6632C21.013 17.1973 21.013 8.79726 20.9611 8.3314C20.709 6.07073 18.9245 4.28563 16.6645 4.03352C16.2508 3.98739 7.68837 3.98953 7.28427 4.03588ZM17.4485 6.39468C17.976 6.55294 18.3785 7.01571 18.4682 7.56694C18.5741 8.21783 18.1773 8.89578 17.5511 9.1338C17.016 9.33717 16.3799 9.19153 15.9921 8.7768C15.1803 7.90865 15.6855 6.50477 16.8685 6.34166C17.0079 6.32242 17.2951 6.34869 17.4485 6.39468ZM16.9388 7.39732C16.8259 7.42306 16.6778 7.58519 16.6547 7.70816C16.6069 7.96294 16.8571 8.21315 17.1118 8.16537C17.2815 8.13351 17.4229 7.96828 17.4229 7.80183C17.4229 7.72711 17.4044 7.63133 17.3817 7.58899C17.3087 7.4526 17.0974 7.36114 16.9388 7.39732ZM12.6464 8.12693C13.7338 8.2717 14.6744 8.74009 15.4657 9.53088C17.4002 11.464 17.4002 14.529 15.4657 16.4641C13.5312 18.3992 10.4688 18.3992 8.53425 16.4641C6.59977 14.529 6.59977 11.464 8.53425 9.53088C9.6405 8.42539 11.1127 7.92278 12.6464 8.12693ZM11.4165 9.18067C10.5984 9.30778 9.86561 9.6812 9.27528 10.2717C7.76244 11.785 7.76244 14.2095 9.27528 15.7228C9.43089 15.8785 9.69267 16.0954 9.857 16.2047C11.3995 17.2314 13.4162 17.0317 14.7247 15.7228C16.2376 14.2095 16.2376 11.785 14.7247 10.2717C13.8493 9.3961 12.6262 8.99269 11.4165 9.18067Z" fill="#9A51D3"/>
</svg>
