<svg width="162" height="40" viewBox="0 0 162 40" fill="none" xmlns="http://www.w3.org/2000/svg">
<rect x="0.5" y="0.5" width="39" height="39" rx="2.5" stroke="#171616"/>
<rect x="13.4301" y="8" width="18.5" height="1" fill="#171616"/>
<rect x="30.9301" y="26.5" width="18.5" height="1" transform="rotate(-90 30.9301 26.5)" fill="#171616"/>
<rect x="8" y="31.0117" width="31.8363" height="1" transform="rotate(-45 8 31.0117)" fill="#171616"/>
<path d="M56.312 26V14.896H57.816V26H56.312ZM60.437 26V14.896H61.493L61.941 16.64V26H60.437ZM68.117 26L61.301 16.896L61.493 14.896L68.325 23.984L68.117 26ZM68.117 26L67.669 24.352V14.896H69.173V26H68.117ZM71.7964 26V14.896H72.8524L73.3004 16.64V26H71.7964ZM79.4764 26L72.6604 16.896L72.8524 14.896L79.6844 23.984L79.4764 26ZM79.4764 26L79.0284 24.352V14.896H80.5324V26H79.4764ZM88.2118 26.16C87.4224 26.16 86.6864 26.016 86.0038 25.728C85.3211 25.4293 84.7238 25.0187 84.2118 24.496C83.6998 23.9627 83.2998 23.3493 83.0118 22.656C82.7344 21.9627 82.5958 21.2213 82.5958 20.432C82.5958 19.632 82.7344 18.8907 83.0118 18.208C83.2998 17.5147 83.6944 16.9067 84.1957 16.384C84.7078 15.8613 85.2998 15.456 85.9718 15.168C86.6544 14.88 87.3904 14.736 88.1798 14.736C88.9691 14.736 89.6998 14.88 90.3718 15.168C91.0544 15.456 91.6518 15.8613 92.1638 16.384C92.6758 16.9067 93.0758 17.5147 93.3638 18.208C93.6518 18.9013 93.7958 19.648 93.7958 20.448C93.7958 21.2373 93.6518 21.9787 93.3638 22.672C93.0758 23.3653 92.6758 23.9733 92.1638 24.496C91.6624 25.0187 91.0704 25.4293 90.3878 25.728C89.7158 26.016 88.9904 26.16 88.2118 26.16ZM88.1798 24.72C88.9798 24.72 89.6784 24.5387 90.2758 24.176C90.8838 23.8027 91.3638 23.296 91.7158 22.656C92.0678 22.0053 92.2438 21.264 92.2438 20.432C92.2438 19.8133 92.1424 19.248 91.9398 18.736C91.7371 18.2133 91.4544 17.76 91.0918 17.376C90.7291 16.992 90.3024 16.6987 89.8118 16.496C89.3211 16.2827 88.7771 16.176 88.1798 16.176C87.3904 16.176 86.6918 16.3573 86.0838 16.72C85.4864 17.0827 85.0118 17.584 84.6598 18.224C84.3184 18.864 84.1478 19.6 84.1478 20.432C84.1478 21.0507 84.2438 21.6267 84.4358 22.16C84.6384 22.6827 84.9158 23.136 85.2678 23.52C85.6304 23.8933 86.0571 24.1867 86.5477 24.4C87.0491 24.6133 87.5931 24.72 88.1798 24.72ZM99.187 26V14.896H100.243L104.947 22.624H104.227L108.931 14.896H109.987V26H108.483V17.536L108.835 17.632L105.123 23.728H104.067L100.355 17.632L100.691 17.536V26H99.187ZM111.793 26L116.337 14.896H117.425L121.953 26H120.321L116.593 16.608H117.153L113.393 26H111.793ZM113.953 23.488V22.176H119.793V23.488H113.953ZM130.489 26L124.889 20.208L130.377 14.896H132.329L126.409 20.592V19.76L132.489 26H130.489ZM123.625 26V14.896H125.129V26H123.625ZM136.194 26V15.216H137.698V26H136.194ZM132.418 16.272V14.896H141.458V16.272H132.418ZM140.809 26L145.353 14.896H146.441L150.969 26H149.337L145.609 16.608H146.169L142.409 26H140.809ZM142.969 23.488V22.176H148.809V23.488H142.969ZM153.648 26V24.688H157.008C157.648 24.688 158.149 24.5013 158.512 24.128C158.875 23.744 159.056 23.2853 159.056 22.752C159.056 22.3893 158.976 22.064 158.816 21.776C158.656 21.4773 158.421 21.2427 158.112 21.072C157.813 20.9013 157.461 20.816 157.056 20.816H153.648V19.504H156.832C157.365 19.504 157.787 19.3653 158.096 19.088C158.416 18.8 158.576 18.3893 158.576 17.856C158.576 17.3227 158.411 16.9173 158.08 16.64C157.749 16.352 157.312 16.208 156.768 16.208H153.648V14.896H156.8C157.525 14.896 158.128 15.0293 158.608 15.296C159.099 15.552 159.467 15.8933 159.712 16.32C159.968 16.7467 160.096 17.216 160.096 17.728C160.096 18.3253 159.931 18.848 159.6 19.296C159.28 19.744 158.805 20.096 158.176 20.352L158.304 19.872C159.019 20.128 159.573 20.5173 159.968 21.04C160.373 21.552 160.576 22.16 160.576 22.864C160.576 23.4507 160.432 23.9787 160.144 24.448C159.856 24.9173 159.44 25.296 158.896 25.584C158.363 25.8613 157.707 26 156.928 26H153.648ZM152.64 26V14.896H154.144V26H152.64Z" fill="black"/>
</svg>
