<svg width="20" height="20" viewBox="0 0 20 20" fill="none" xmlns="http://www.w3.org/2000/svg">
<path d="M16.9778 12.7111C16.8889 12.6667 16.7556 12.6667 16.6667 12.6667C15.1556 12.4889 13.7333 11.9556 12.4889 11.2L10.5333 13.2C9.11111 12.2222 7.86667 10.9333 6.88889 9.6L8.84444 7.6C8.08889 6.35556 7.6 4.93334 7.37778 3.37778C7.37778 3.37778 7.37778 3.37778 7.37778 3.33333C7.37778 3.24444 7.37778 3.11112 7.33333 3.02223C7.2 2.44445 6.66667 2 6.04445 2H4.62222H3.33333C2.62222 2 2 2.57778 2 3.28889C2 3.28889 2 3.28889 2 3.33333C2 3.42222 2 3.46667 2.04445 3.55556C2.31111 6.48889 3.37778 9.15556 4.97778 11.3778C6 12.7556 7.2 14 8.62222 15.0222C10.8444 16.6222 13.5556 17.6889 16.4444 17.9556C16.5333 17.9556 16.5778 18 16.6667 18C16.6667 18 16.6667 18 16.7111 18C17.4222 18 18 17.3778 18 16.6667V15.3778V13.9556C18 13.3778 17.5556 12.8444 16.9778 12.7111Z" fill="#9A51D3"/>
</svg>
