<svg width="50" height="50" viewBox="0 0 50 50" fill="none" xmlns="http://www.w3.org/2000/svg">
<path d="M23.0468 7.46097C21.0839 7.87113 19.3358 8.81839 17.9979 10.1758C17.119 11.0645 16.6991 11.6114 16.2108 12.5196C14.8046 15.1465 14.6581 18.4375 15.83 21.2012C16.5233 22.8516 18.0175 24.6387 19.4628 25.5762C20.0389 25.9473 20.1171 26.0352 20.1171 26.2989C20.1171 26.7286 19.7753 27.3731 19.3456 27.7637C19.1307 27.959 18.6229 28.2325 18.1542 28.418C14.0135 30 10.9764 32.7344 9.87292 35.8692L9.53113 36.8653L9.49207 38.9453L9.453 41.0254L9.70691 41.5528C10.0292 42.1973 10.576 42.627 11.2694 42.7735C11.621 42.8516 15.7421 42.8711 25.3417 42.8516C38.369 42.8223 38.9257 42.8125 39.2577 42.6368C39.7362 42.3828 40.1171 42.0118 40.3612 41.5528C40.5663 41.1914 40.576 41.0254 40.576 39.209C40.5663 37.002 40.4882 36.5625 39.8436 35.1953C38.5936 32.5098 35.869 30.127 32.3534 28.6621C30.996 28.086 30.5956 27.8418 30.2733 27.3731C30.0878 27.0996 29.7264 26.0645 29.8143 26.0254C29.8241 26.0254 30.1464 25.8203 30.5272 25.5664C32.5878 24.2188 34.1014 22.0606 34.7264 19.5313C34.9999 18.4571 34.9803 15.8789 34.6874 14.8243C34.1893 13.0176 33.3885 11.6016 32.0897 10.2735C30.8495 8.99417 29.3065 8.08597 27.5878 7.61722C26.5917 7.34378 24.0428 7.25589 23.0468 7.46097ZM26.0741 29.375C26.2499 29.5215 26.4452 30.1563 27.1093 32.7246C27.5585 34.4629 27.9198 36.045 27.9296 36.2305C27.9296 36.5332 27.8026 36.6895 26.6796 37.8125C25.4589 39.0332 25.4198 39.0625 25.0096 39.0625C24.5897 39.0625 24.5507 39.0332 23.33 37.8125C22.1971 36.6993 22.0702 36.5332 22.0702 36.2305C22.0702 35.625 23.6327 29.668 23.8573 29.4141C24.0331 29.2188 24.1503 29.1993 24.9608 29.1993C25.6737 29.1993 25.8983 29.2383 26.0741 29.375Z" fill="#9A51D3"/>
</svg>
