<svg width="24" height="24" viewBox="0 0 24 24" fill="none" xmlns="http://www.w3.org/2000/svg">
<path fill-rule="evenodd" clip-rule="evenodd" d="M19.7876 5.08148C18.5895 5.52247 3.82286 11.1983 3.60537 11.3015C2.88265 11.6442 2.79816 12.0969 3.39981 12.4031C3.45789 12.4326 4.45739 12.7524 5.62091 13.1137L7.73644 13.7706L12.5401 10.7641C15.1821 9.11053 17.397 7.73903 17.462 7.71638C17.6252 7.65946 17.7656 7.66478 17.8311 7.73036C17.877 7.77626 17.8789 7.79929 17.8424 7.86674C17.8183 7.91137 16.0639 9.50548 13.9436 11.4092C11.8234 13.3129 10.083 14.8854 10.076 14.9036C10.069 14.9218 9.99733 15.8723 9.91664 17.0157L9.76997 19.0947L9.92935 19.0732C10.017 19.0613 10.1558 19.0161 10.2378 18.9726C10.3198 18.9291 10.8718 18.4288 11.4645 17.8609C12.0571 17.2929 12.5626 16.8204 12.5877 16.8107C12.6127 16.8011 13.5565 17.47 14.685 18.2971C15.8134 19.1243 16.8251 19.8419 16.9332 19.8919C17.2166 20.0229 17.536 20.0359 17.7434 19.9249C17.9286 19.8257 18.1097 19.5794 18.1858 19.3229C18.2153 19.2236 18.8604 16.2413 19.6195 12.6955C20.8832 6.79196 20.9996 6.22041 21 5.914C21.0004 5.62451 20.9884 5.55565 20.9109 5.40328C20.8562 5.29585 20.763 5.18616 20.6718 5.12206C20.4635 4.97546 20.1187 4.95965 19.7876 5.08148Z" fill="#9A51D3"/>
</svg>
