<svg width="51" height="50" viewBox="0 0 51 50" fill="none" xmlns="http://www.w3.org/2000/svg">
<path d="M15.7347 9.22846C10.1194 11.8749 5.49054 14.1113 5.44171 14.1894C5.2171 14.5312 5.51984 14.7851 6.8382 15.371L8.11749 15.9374V17.7636C8.11749 18.7597 8.14679 21.0546 8.17609 22.8515L8.24445 26.123L7.75616 26.289C7.1507 26.5038 6.51593 27.0996 6.23273 27.7148C5.92999 28.3788 5.93976 29.5703 6.25226 30.1757C6.54523 30.7421 6.99445 31.2206 7.47296 31.4648L7.84406 31.6601L7.7757 32.4999C7.4632 36.5331 6.10577 39.4824 3.82062 41.0937C3.0589 41.6406 3.03937 41.6601 3.03937 42.0996C3.03937 42.539 3.09796 42.5878 5.38312 44.2773C7.56085 45.8788 7.61945 45.8984 8.41046 45.0878C9.82648 43.6621 10.3929 42.1972 10.3831 39.9902C10.3831 38.9453 10.305 38.2714 9.9339 36.1328C9.68976 34.707 9.46515 33.1445 9.42609 32.666L9.36749 31.7871L9.87531 31.6113C10.5003 31.3867 11.0862 30.8691 11.4183 30.2343C11.7601 29.58 11.7894 28.4081 11.4769 27.7343C11.223 27.1972 10.5589 26.5136 10.1292 26.3574L9.80695 26.2402L9.74835 22.9589C9.67023 18.9746 9.66046 16.6992 9.72882 16.6992C9.75812 16.6992 13.3909 18.3886 17.7855 20.4589C22.1898 22.5292 25.9886 24.2675 26.2327 24.3261C26.4769 24.3847 26.8675 24.414 27.0921 24.3945C27.3655 24.3554 30.9788 22.705 37.7269 19.5214L47.9612 14.6972V14.3945C47.9612 14.2285 47.9026 14.0429 47.8441 13.9941C47.6878 13.8671 28.2542 4.8144 27.6194 4.57026C27.3362 4.46283 26.9261 4.39447 26.5452 4.40424C25.9495 4.40424 25.7249 4.51166 15.7347 9.22846Z" fill="#9A51D3"/>
<path d="M34.0158 22.7539C30.7248 24.3066 27.8733 25.625 27.6682 25.6836C27.1604 25.8203 26.5158 25.8105 25.8908 25.6445C25.5979 25.5664 22.7756 24.2871 19.6311 22.8125C16.4865 21.3281 13.8596 20.1172 13.7912 20.1172C13.7033 20.1172 13.6838 21.1426 13.7033 24.4824L13.7326 28.8574L13.9963 29.4238C15.0022 31.5723 18.4299 33.3008 23.1565 34.0527C24.7483 34.3066 29.0647 34.3066 30.676 34.0527C34.8752 33.3984 38.0979 31.9629 39.426 30.1465C40.1486 29.1797 40.1486 29.1504 40.1486 24.248C40.1486 21.8652 40.1193 19.9219 40.0803 19.9219C40.0315 19.9219 37.3068 21.2012 34.0158 22.7539Z" fill="#9A51D3"/>
</svg>
